HIERARCHY
ROOT Hips
{
  OFFSET 0 0.240689 0
  CHANNELS 6 Xposition Yposition Zposition Zrotation Xrotation Yrotation
  JOINT Bip01_Spine0
  {
    OFFSET 0 -24.7459 49.7988
    CHANNELS 6 Xposition Yposition Zposition Zrotation Xrotation Yrotation
    JOINT Bip01_Pelvis
    {
      OFFSET 0 0 0
      CHANNELS 6 Xposition Yposition Zposition Zrotation Xrotation Yrotation
      JOINT Bip01_Spine0_Tail
      {
        OFFSET -6.47486 -3.86022 0
        CHANNELS 6 Xposition Yposition Zposition Zrotation Xrotation Yrotation
        JOINT Bip01_Spine0_Tail1
        {
          OFFSET 10.3837 -0.00825882 0
          CHANNELS 6 Xposition Yposition Zposition Zrotation Xrotation Yrotation
          JOINT Bip01_Spine0_Tail2
          {
            OFFSET 10.3837 -0.00826263 0
            CHANNELS 6 Xposition Yposition Zposition Zrotation Xrotation Yrotation
            JOINT Bip01_Spine0_Tail3
            {
              OFFSET 10.3837 -0.00825882 0
              CHANNELS 6 Xposition Yposition Zposition Zrotation Xrotation Yrotation
              JOINT Bip01_Spine0_Tail4
              {
                OFFSET 10.3837 -0.00826263 0
                CHANNELS 6 Xposition Yposition Zposition Zrotation Xrotation Yrotation
                End Site
                {
                  OFFSET 0 0 0
                }
              }
            }
          }
        }
      }
      JOINT Bip01_R_Thigh
      {
        OFFSET 0 -1.52588e-005 -8.75617
        CHANNELS 6 Xposition Yposition Zposition Zrotation Xrotation Yrotation
        JOINT Bip01_R_Calf
        {
          OFFSET 19.7638 0 0
          CHANNELS 6 Xposition Yposition Zposition Zrotation Xrotation Yrotation
          JOINT Bip01_R_Foot
          {
            OFFSET 18.6534 0 0
            CHANNELS 6 Xposition Yposition Zposition Zrotation Xrotation Yrotation
            JOINT Bip01_R_Toe0
            {
              OFFSET 5.09145 13.9567 0
              CHANNELS 6 Xposition Yposition Zposition Zrotation Xrotation Yrotation
              JOINT Bip01_R_Toe01
              {
                OFFSET 4.28803 0 0
                CHANNELS 6 Xposition Yposition Zposition Zrotation Xrotation Yrotation
                JOINT Bip01_R_Toe02
                {
                  OFFSET 3.85801 0 0
                  CHANNELS 6 Xposition Yposition Zposition Zrotation Xrotation Yrotation
                  End Site
                  {
                    OFFSET 0 0 0
                  }
                }
              }
            }
          }
        }
      }
      JOINT Bip01_L_Thigh
      {
        OFFSET 0 1.52588e-005 8.75617
        CHANNELS 6 Xposition Yposition Zposition Zrotation Xrotation Yrotation
        JOINT Bip01_L_Calf
        {
          OFFSET 19.7638 0 0
          CHANNELS 6 Xposition Yposition Zposition Zrotation Xrotation Yrotation
          JOINT Bip01_L_Foot
          {
            OFFSET 18.6534 0 0
            CHANNELS 6 Xposition Yposition Zposition Zrotation Xrotation Yrotation
            JOINT Bip01_L_Toe0
            {
              OFFSET 5.09144 13.9567 0
              CHANNELS 6 Xposition Yposition Zposition Zrotation Xrotation Yrotation
              JOINT Bip01_L_Toe01
              {
                OFFSET 4.28802 0 0
                CHANNELS 6 Xposition Yposition Zposition Zrotation Xrotation Yrotation
                JOINT Bip01_L_Toe02
                {
                  OFFSET 3.85801 0 0
                  CHANNELS 6 Xposition Yposition Zposition Zrotation Xrotation Yrotation
                  End Site
                  {
                    OFFSET 0 0 0
                  }
                }
              }
            }
          }
        }
      }
      JOINT Bip01_Spine
      {
        OFFSET 9.14835 -0.00640869 -1.1e-005
        CHANNELS 6 Xposition Yposition Zposition Zrotation Xrotation Yrotation
        JOINT Bip01_Spine1
        {
          OFFSET 8.04366 -0.00638199 0
          CHANNELS 6 Xposition Yposition Zposition Zrotation Xrotation Yrotation
          JOINT Bip01_Spine2
          {
            OFFSET 8.04367 -0.00639343 0
            CHANNELS 6 Xposition Yposition Zposition Zrotation Xrotation Yrotation
            JOINT Bip01_Spine3
            {
              OFFSET 8.04304 -0.00831222 0
              CHANNELS 6 Xposition Yposition Zposition Zrotation Xrotation Yrotation
              JOINT Bip01_Neck
              {
                OFFSET 10.6685 1.06813 0
                CHANNELS 6 Xposition Yposition Zposition Zrotation Xrotation Yrotation
                JOINT Bip01_R_Clavicle
                {
                  OFFSET -3.21661 -4.89635 -9.04802
                  CHANNELS 6 Xposition Yposition Zposition Zrotation Xrotation Yrotation
                  JOINT Bip01_R_UpperArm
                  {
                    OFFSET 19.0492 0 0
                    CHANNELS 6 Xposition Yposition Zposition Zrotation Xrotation Yrotation
                    JOINT Bip01_R_Forearm
                    {
                      OFFSET 10.3706 0 0
                      CHANNELS 6 Xposition Yposition Zposition Zrotation Xrotation Yrotation
                      JOINT Bip01_R_Hand
                      {
                        OFFSET 22.8632 0 0
                        CHANNELS 6 Xposition Yposition Zposition Zrotation Xrotation Yrotation
                        JOINT Bip01_R_Finger0
                        {
                          OFFSET 6.48259 0.103651 0.504496
                          CHANNELS 6 Xposition Yposition Zposition Zrotation Xrotation Yrotation
                          JOINT Bip01_R_Finger01
                          {
                            OFFSET 3.66847 0 0
                            CHANNELS 6 Xposition Yposition Zposition Zrotation Xrotation Yrotation
                            End Site
                            {
                              OFFSET 0 0 0
                            }
                          }
                        }
                      }
                    }
                  }
                }
                JOINT Bip01_L_Clavicle
                {
                  OFFSET -3.21661 -4.89641 9.04797
                  CHANNELS 6 Xposition Yposition Zposition Zrotation Xrotation Yrotation
                  JOINT Bip01_L_UpperArm
                  {
                    OFFSET 19.0492 0 0
                    CHANNELS 6 Xposition Yposition Zposition Zrotation Xrotation Yrotation
                    JOINT Bip01_L_Forearm
                    {
                      OFFSET 10.3706 0 0
                      CHANNELS 6 Xposition Yposition Zposition Zrotation Xrotation Yrotation
                      JOINT Bip01_L_Hand
                      {
                        OFFSET 22.8631 0 0
                        CHANNELS 6 Xposition Yposition Zposition Zrotation Xrotation Yrotation
                        JOINT Bip01_L_Finger0
                        {
                          OFFSET 6.48257 0.103655 -0.504492
                          CHANNELS 6 Xposition Yposition Zposition Zrotation Xrotation Yrotation
                          JOINT Bip01_L_Finger01
                          {
                            OFFSET 3.66844 0 0
                            CHANNELS 6 Xposition Yposition Zposition Zrotation Xrotation Yrotation
                            End Site
                            {
                              OFFSET 0 0 0
                            }
                          }
                        }
                      }
                    }
                  }
                }
                JOINT Bip01_Neck1
                {
                  OFFSET 7.52459 -0.00656509 0
                  CHANNELS 6 Xposition Yposition Zposition Zrotation Xrotation Yrotation
                  JOINT Bip01_Neck2
                  {
                    OFFSET 8.4783 -0.00588226 0
                    CHANNELS 6 Xposition Yposition Zposition Zrotation Xrotation Yrotation
                    JOINT Bip01_Head
                    {
                      OFFSET 8.41606 0 0
                      CHANNELS 6 Xposition Yposition Zposition Zrotation Xrotation Yrotation
                      JOINT EyesBlue
                      {
                        OFFSET 0 0 0
                        CHANNELS 6 Xposition Yposition Zposition Zrotation Xrotation Yrotation
                        JOINT EyesBlue_2
                        {
                          OFFSET 0 -0.500007 0
                          CHANNELS 6 Xposition Yposition Zposition Zrotation Xrotation Yrotation
                          End Site
                          {
                            OFFSET 0 0 0
                          }
                        }
                      }
                      JOINT Bip01_Head2_Eyeleds
                      {
                        OFFSET 6.52751 7.61746 2.2e-005
                        CHANNELS 6 Xposition Yposition Zposition Zrotation Xrotation Yrotation
                        End Site
                        {
                          OFFSET 0 0 0
                        }
                      }
                      JOINT Bip01_Head_Muzzle
                      {
                        OFFSET 2.88628 13.9448 3.88994
                        CHANNELS 6 Xposition Yposition Zposition Zrotation Xrotation Yrotation
                        End Site
                        {
                          OFFSET 0 0 0
                        }
                      }
                      JOINT Bip01_Head1_Jaw
                      {
                        OFFSET 0.271065 1.32405 0
                        CHANNELS 6 Xposition Yposition Zposition Zrotation Xrotation Yrotation
                        JOINT _Bip01_Head11_TungeControler
                        {
                          OFFSET 4.61616 5.82872 0
                          CHANNELS 6 Xposition Yposition Zposition Zrotation Xrotation Yrotation
                          JOINT _Bip01_Ponytail3_tunge
                          {
                            OFFSET 5.17785 2.98805 0
                            CHANNELS 6 Xposition Yposition Zposition Zrotation Xrotation Yrotation
                            JOINT Bip01_Ponytail31
                            {
                              OFFSET 5.57569 0 0
                              CHANNELS 6 Xposition Yposition Zposition Zrotation Xrotation Yrotation
                              JOINT Bip01_Ponytail32
                              {
                                OFFSET 2.93165 0 0
                                CHANNELS 6 Xposition Yposition Zposition Zrotation Xrotation Yrotation
                                JOINT Bip01_Ponytail3Nub
                                {
                                  OFFSET 3.30155 0 0
                                  CHANNELS 6 Xposition Yposition Zposition Zrotation Xrotation Yrotation
                                  End Site
                                  {
                                    OFFSET 0 0 0
                                  }
                                }
                              }
                            }
                          }
                        }
                        JOINT Bip01_Head_JawNub
                        {
                          OFFSET 15.5776 -0.000389099 0
                          CHANNELS 6 Xposition Yposition Zposition Zrotation Xrotation Yrotation
                          End Site
                          {
                            OFFSET 0 0 0
                          }
                        }
                      }
                      JOINT Bip01_Ponytail2
                      {
                        OFFSET 9.40334 1.03973 -6.51764
                        CHANNELS 6 Xposition Yposition Zposition Zrotation Xrotation Yrotation
                        JOINT Bip01_Ponytail21
                        {
                          OFFSET 2.77018 -0.00640106 1.33514e-005
                          CHANNELS 6 Xposition Yposition Zposition Zrotation Xrotation Yrotation
                          End Site
                          {
                            OFFSET 0 0 0
                          }
                        }
                      }
                      JOINT Bip01_Ponytail1
                      {
                        OFFSET 9.40368 1.03969 6.51768
                        CHANNELS 6 Xposition Yposition Zposition Zrotation Xrotation Yrotation
                        JOINT Bip01_Ponytail11
                        {
                          OFFSET 2.77018 -0.00640487 0
                          CHANNELS 6 Xposition Yposition Zposition Zrotation Xrotation Yrotation
                          End Site
                          {
                            OFFSET 0 0 0
                          }
                        }
                      }
                    }
                  }
                }
              }
            }
          }
        }
      }
    }
  }
}
MOTION
Frames:	4
Frame Time:	0.0333333
0 1e-006 -1e-006 -0 -90 -0 -0.261803 -24.7454 50.039 90 -3.50835e-015 90 0 0 0 -89.9995 -7.57423e-005 -93.899 -6.45921 -3.86071 0.44028 133.255 2.84284 -2.67124 10.3792 -0.007156 0.000137 -29.7594 0.001129 0.001947 10.3822 -0.008049 3.7e-005 -6.80002 0.00475032 4.20296 10.3856 -0.007801 0.000129 16.8202 0.0037178 4.20262 10.3809 -0.007808 0.000118 -16.0003 0.00108694 0.00144228 1.1e-005 -1.1e-005 -8.75617 -97.4888 -11.9741 173.961 19.7638 0 1.77636e-015 -60.8866 0.00082202 0.003176 18.6534 0 3.55271e-015 -27.4938 1.40031 7.55285 5.09144 13.9567 1.91303e-006 114.82 3.10082 1.66906 4.288 -1e-006 3e-006 65.0003 0.00238436 0.000526634 3.85799 1.40332e-013 -1e-006 -23.5 0.00065254 0.00102483 -1.5e-005 1.1e-005 8.75617 -110.948 -4.43258 -179.21 19.7638 5.32907e-015 5.32907e-015 -63.6036 0.00075 0.0032 18.6534 3e-006 -1.77636e-015 -25.5003 1.14716 -5.71829 5.09143 13.9567 -7.10543e-015 115 0.00145351 5.00024 4.288 3.55271e-015 3.55271e-015 65 2.92203e-006 -2.06958e-006 3.85799 1.24345e-014 1e-006 -45.0006 0.000490067 0.00120185 9.12715 -0.006301 -0.622128 -0.00011823 0.00054367 3.899 8.04366 0.000255839 -0.00784597 0.0474163 8.92383e-005 0.109965 8.04364 -0.006278 0.000106 0.000590486 0.000585005 0.054157 8.04304 -0.008323 3.78031e-014 -4.29873 4.20004e-005 0.054089 10.67 1.06808 1e-006 0.691232 0.000824997 0.000816 -4.30514 -3.9747 -9.04791 179.261 -85.4181 114.999 19.0492 1.59872e-014 -7.10543e-015 89.7455 8.41663 -103.466 10.3706 -2.4869e-014 1.33227e-015 -58.5386 -0.000520374 -0.00188247 22.8631 -1e-006 5.10703e-014 -16.621 -0.172761 2.4511 6.48255 0.103653 0.504496 -78.3091 -0.300433 -15.4962 3.66843 -2.42029e-013 1e-006 40.107 1.99854e-005 -1.34379e-007 -4.30491 -3.97462 9.04799 179.264 85.4165 -115 19.0492 -7.10543e-015 3e-006 88.6337 -8.31462 99.4949 10.3706 7.10543e-015 4.44089e-015 -58.5375 0.000643532 0.00229129 22.8631 -3.55272e-015 -1.77636e-015 -16.4583 -8.55798 -2.45242 6.48255 0.103653 -0.504495 -75.9442 0.957262 15.4716 3.66843 3.26406e-013 -1e-006 40.107 2.85936e-005 -1.9018e-005 7.52551 -0.006637 2.9e-005 -4.48468 0.001627 0.00176 8.47685 -0.006446 2.7e-005 15.6203 0.00122501 0.000928999 8.41605 3e-006 2.22045e-016 -74.0226 0.197126 -0.0886463 1.42109e-014 1e-006 -3e-006 -23.1098 1.37701e-015 90 3.09812e-008 -0.500004 -9.22215e-006 134.263 90 -44.2628 0 0 0 -113.553 -7.01671e-015 -179.995 2.8863 13.9448 3.88993 -22.989 1.3702e-015 90 0 0 0 -85.3358 -7.01671e-015 -180 0 0 0 -120.289 4.01393e-009 -1.99483e-005 0 0 0 133.74 -1.9546e-005 4.70657e-006 0 0 0 1.83152 -1.52132e-008 -3.22307e-009 0 0 0 -17.65 6.19018e-008 3.51735e-008 0 0 0 -26.1943 1.42006e-008 2.14724e-008 15.5776 -0.000396 -7e-006 3.18055e-015 -3.88251e-018 -7.76503e-019 9.40316 1.03979 -6.51764 -19.0872 17.2466 20.3035 2.77018 -0.006362 3.6e-005 2.43509 0.00191194 0.00183299 9.40365 1.03979 6.51761 -19.0855 -17.2444 -20.2985 2.77018 -0.006366 3.4e-005 2.43555 5.90282e-005 5.70144e-005 
0.543487 1e-006 0.638248 -0 -90 -0 -0.248082 -24.9595 49.7449 90.0003 3.81854e-005 90.5932 0 0 0 -89.9999 -6.06205e-005 -92.0888 -6.46939 -3.86071 0.235945 133.788 1.50925 -1.4458 10.3792 -0.007156 0.000137 -26.6987 0.00123135 0.00188394 10.3822 -0.008049 3.7e-005 -6.80002 0.00475027 4.20296 10.3856 -0.007801 0.000129 16.8202 0.00371782 4.20262 10.3809 -0.007808 0.000118 -12.3601 0.00117631 0.00137029 1.1e-005 -1.1e-005 -8.75617 -103.189 -9.197 173.446 19.7638 0 0 -68.1097 0.000604114 0.00317897 18.6534 0 -3.55271e-015 -17.0539 4.83855 7.72726 5.09144 13.9567 2.47978e-006 110.849 3.02578 1.8196 4.288 -1e-006 3e-006 63.2043 0.0023676 0.000600813 3.85799 1.58984e-013 -1e-006 -23.5 0.000648608 0.00102457 -1.5e-005 1.1e-005 8.75617 -112.157 -3.17274 -177.756 19.7638 -1.77636e-015 8.88179e-015 -64.9527 0.00067445 0.00321677 18.6534 3e-006 3.55271e-015 -22.6779 1.77034 -6.21811 5.09143 13.9567 7.10543e-015 112.856 0.0038513 5.00352 4.288 1.42109e-014 5.32907e-015 65 2.5661e-006 -2.05812e-006 3.85799 3.55272e-015 1e-006 -45.0006 0.00049023 0.00120209 9.14135 -0.006301 -0.333403 -0.199212 -0.00686543 2.13204 8.04366 -0.006401 -2.27596e-014 0.212409 0.000199171 0.0421258 8.04364 -0.006278 0.000106 1.02737 -1.60888 -0.00482069 8.04304 -0.008323 1.11022e-015 -4.57726 0.000730592 0.0422032 10.67 1.06808 1e-006 -1.39216 0.000794788 0.000845453 -4.15707 -4.12823 -9.04791 -178.627 -85.0046 116.931 19.0492 5.32907e-015 0 89.5683 0.539985 -100.067 10.3706 3.55271e-015 1.77636e-015 -74.4211 -0.000248903 -0.00188052 22.8631 -1e-006 3.73035e-014 -5.38805 3.71367 4.59143 6.48255 0.103653 0.504496 -69.2196 -2.80428 -15.2493 3.66843 2.55351e-013 1e-006 40.107 -9.62587e-007 1.61179e-005 -4.15696 -4.12815 9.04799 -178.631 84.8387 -115.783 19.0492 -3.55271e-015 3e-006 90.0326 -1.83835 98.6959 10.3706 1.06581e-014 6.21725e-015 -68.938 0.000415701 0.00229519 22.8631 -1.42109e-014 -8.88178e-015 -15.4089 -9.47839 -1.92267 6.48255 0.103653 -0.504495 -73.3408 1.67635 15.4118 3.66843 2.57572e-013 -1e-006 40.107 2.54589e-005 -1.61779e-005 7.52551 -0.006637 2.9e-005 -4.89661 0.0016143 0.00177165 8.47685 -0.006446 2.7e-005 14.1364 0.00120054 0.000960412 8.41605 3e-006 -1.55431e-015 -72.9591 0.653236 1.46908 -2.13163e-014 1e-006 -3e-006 -23.1098 1.37701e-015 90 3.1181e-008 -0.500004 -9.22213e-006 180 90 -90 0 0 0 -112.824 -7.01671e-015 -180 3.06767 13.9305 3.88993 -22.989 1.3702e-015 90 0 0 0 -85.3358 -7.01671e-015 -180 0 0 0 -120.289 6.70063e-008 -1.99837e-005 0 0 0 133.74 -1.94578e-005 4.73712e-006 0 0 0 1.83152 -1.38637e-008 -1.33831e-009 0 0 0 -17.65 4.31751e-008 1.68932e-008 0 0 0 -26.1943 3.70954e-009 4.37807e-009 15.5776 -0.000396 -7e-006 -3.18055e-015 -3.10601e-018 -0 9.40316 1.03979 -6.51764 -18.0895 11.8641 22.7693 2.77018 -0.006362 3.59999e-005 0.739365 1.70714 1.40414 9.40365 1.03979 6.51761 -18.0901 -11.8615 -22.7672 2.77018 -0.006366 3.40001e-005 0.739797 -1.70611 -1.40148 
1.08698 1e-006 1.2765 -0 -90 -0 -0.23309 -25.1882 49.4312 90.0001 3.08744e-005 91.2266 0 0 0 -89.9998 -3.50835e-015 -90 -6.47341 -3.86071 0.0025766 134.372 0.0173796 -0.0165579 10.3792 -0.007156 0.000137 -23.2843 0.00134136 0.00180726 10.3822 -0.008049 3.7e-005 -6.80002 0.00475021 4.20296 10.3856 -0.007801 0.000129 16.8202 0.00371785 4.20262 10.3809 -0.007808 0.000118 -8.21424 0.00127231 0.00128158 1.1e-005 -1.1e-005 -8.75617 -109.462 -6.11651 173.441 19.7638 3.55271e-015 3.55271e-015 -76.0693 0.00037705 0.00317804 18.6534 0 0 -5.69104 8.63908 7.28231 5.09144 13.9567 2.62748e-006 101.782 2.81699 2.14385 4.288 -1e-006 3e-006 59.1181 0.00230983 0.000768378 3.85799 3.17968e-013 -1e-006 -23.5 0.000659797 0.00102819 -1.5e-005 1.1e-005 8.75617 -113.211 -1.75252 -176.067 19.7638 -1.77636e-015 3.55271e-015 -66.1486 0.000607166 0.00323015 18.6534 3e-006 -1.77636e-015 -19.5642 2.46221 -6.84917 5.09143 13.9567 1.24345e-014 110.468 0.0526577 5.06174 4.288 0 0 65 2.19286e-006 -2.04815e-006 3.85799 -8.88179e-015 1e-006 -45.0006 0.000490417 0.00120235 9.14693 -0.006301 -0.00365292 -0.450376 0.000132942 0.0531256 8.04366 -0.006401 6.21725e-015 0.419282 0.000258267 0.0294161 8.04364 -0.006278 0.000106 2.12956 -3.4259 -0.0391482 8.04304 -0.008323 -8.88179e-016 -4.8587 0.00159682 0.0295769 10.67 1.06808 1e-006 -3.64386 0.000760957 0.000876027 -3.99116 -4.28815 -9.04791 -176.359 -84.6693 118.929 19.0492 -7.10543e-015 0 89.6238 -7.97035 -96.2777 10.3706 2.13163e-014 -3.55271e-015 -92.2724 3.74023e-005 -0.001879 22.8631 -1e-006 2.13163e-014 7.60312 7.89632 6.03982 6.48255 0.103653 0.504496 -59.7798 -5.31783 -14.5793 3.66843 5.32907e-014 1e-006 40.107 4.79045e-006 1.01395e-005 -3.99106 -4.28801 9.04799 -176.376 84.2444 -116.57 19.0492 0 3e-006 92.017 4.10501 97.764 10.3706 -1.06581e-014 -2.66453e-015 -78.8297 0.000215213 0.00229429 22.8631 3.55272e-015 -7.10543e-015 -14.4803 -10.6365 -1.28019 6.48255 0.103653 -0.504495 -70.6653 2.41119 15.3163 3.66843 1.95399e-013 -1e-006 40.107 2.19177e-005 -1.29848e-005 7.52551 -0.006637 2.9e-005 -5.51749 0.00159501 0.00178904 8.47685 -0.006446 2.7e-005 12.4543 0.00117185 0.000995237 8.41605 3e-006 -4.88498e-015 -71.5258 1.01196 3.26663 -3.55271e-014 1e-006 -3e-006 -23.1098 1.37701e-015 90 3.15704e-008 -0.500004 -9.22202e-006 180 90 -90 0 0 0 -112.1 -7.01671e-015 -180 3.24904 13.9162 3.88993 -22.989 1.3702e-015 90 0 0 0 -85.3358 -7.01671e-015 -180 0 0 0 -120.289 1.54112e-007 -2.00423e-005 0 0 0 133.74 -1.92988e-005 4.77532e-006 0 0 0 1.83152 -1.08418e-009 2.57438e-009 0 0 0 -17.65 -2.2707e-008 -2.40813e-008 0 0 0 -26.1943 -1.62129e-008 -2.33852e-008 15.5776 -0.000396 -7e-006 -0 -3.10601e-018 -0 9.40316 1.03979 -6.51764 -16.7873 6.1591 25.4677 2.77018 -0.006362 3.59998e-005 -1.12231 3.48412 2.96052 9.40365 1.03979 6.51761 -16.7877 -6.15663 -25.4666 2.77018 -0.006366 3.40002e-005 -1.12173 -3.48285 -2.95828 
1.63047 1e-006 1.91476 -0 -90 -0 -0.217619 -25.4176 49.1159 89.9999 2.85275e-005 91.8626 0 0 0 -89.9998 -1.83925e-005 -87.9457 -6.46917 -3.86071 -0.232171 134.983 -1.45289 1.452 10.3792 -0.007156 0.000137 -19.7875 0.0014491 0.00172208 10.3822 -0.008049 3.7e-005 -6.80002 0.00475015 4.20296 10.3856 -0.007801 0.000129 16.8202 0.00371788 4.20262 10.3809 -0.007808 0.000118 -3.91564 0.00136479 0.00118253 1.1e-005 -1.1e-005 -8.75617 -115.022 -3.19645 173.961 19.7638 1.77636e-015 -7.10543e-015 -83.2384 0.000180291 0.00317643 18.6534 -7.10543e-015 3.55271e-015 4.84226 11.9609 6.3025 5.09144 13.9567 2.65693e-006 91.5217 2.52599 2.46818 4.288 -1e-006 3e-006 54.4738 0.00222824 0.000954259 3.85799 5.36016e-013 -1e-006 -23.5 0.000676309 0.00103288 -1.5e-005 1.1e-005 8.75617 -114.114 -0.365138 -174.29 19.7638 -1.77636e-015 1.77636e-015 -67.1324 0.000551615 0.0032401 18.6534 3e-006 -1.77636e-015 -16.4299 3.16411 -7.58116 5.09143 13.9567 -1.77636e-015 108.019 0.131226 5.16598 4.288 0 -3.55271e-015 65 1.83725e-006 -2.04132e-006 3.85799 -2.30927e-014 1e-006 -45.0006 0.00049061 0.0012026 9.14079 -0.006301 0.328044 -0.695122 0.0252795 -2.03731 8.04366 -0.006401 8.88179e-016 0.628941 0.00023055 0.0170846 8.04364 -0.006278 0.000106 3.15152 -5.02202 -0.0391179 8.04304 -0.008323 1.77636e-015 -5.13869 0.00255323 0.0173417 10.67 1.06808 1e-006 -5.90607 0.000725785 0.000905381 -3.81841 -4.44213 -9.04791 -174.085 -84.2508 120.841 19.0492 3.55271e-015 7.10543e-015 90.1482 -15.5294 -92.1462 10.3706 -1.06581e-014 3.55271e-015 -108.01 0.000291792 -0.0018796 22.8631 -1e-006 -7.10543e-015 18.6733 12.3427 6.49608 6.48255 0.103653 0.504496 -50.4226 -7.64983 -13.5201 3.66843 7.10543e-015 1e-006 40.107 6.38761e-006 7.86324e-006 -3.8183 -4.44198 9.04799 -174.112 83.6668 -117.333 19.0492 -7.10543e-015 3e-006 94.1218 9.02893 96.874 10.3706 7.10543e-015 0 -87.2363 5.10659e-005 0.00229437 22.8631 2.13163e-014 4.44089e-015 -13.8273 -11.8959 -0.675385 6.48255 0.103653 -0.504495 -68.0614 3.12056 15.1907 3.66843 1.7053e-013 -1e-006 40.107 1.88204e-005 -1.02155e-005 7.52551 -0.006637 2.9e-005 -6.25284 0.00157192 0.00180936 8.47685 -0.006446 2.7e-005 10.7166 0.00114108 0.00103031 8.41605 3e-006 3.55271e-015 -69.8286 1.16334 4.87875 -2.13163e-014 1e-006 -3e-006 -23.1098 1.37701e-015 90 3.20794e-008 -0.500004 -9.22181e-006 -180 90 -90 0 0 0 -111.375 -7.01671e-015 -180 3.43041 13.9019 3.88993 -22.989 1.3702e-015 90 0 0 0 -85.3358 -7.01671e-015 -180 0 0 0 -120.289 2.47392e-007 -2.01154e-005 0 0 0 133.74 -1.90666e-005 4.81187e-006 0 0 0 1.83152 3.94163e-008 8.87583e-009 0 0 0 -17.65 -1.72073e-007 -9.61109e-008 0 0 0 -26.1943 -4.40386e-008 -5.73806e-008 15.5776 -0.000396 -7e-006 -0 0 6.21202e-018 9.40316 1.03979 -6.51764 -15.2157 0.498314 28.2929 2.77018 -0.006362 3.59998e-005 -3.04533 5.21713 4.5851 9.40365 1.03979 6.51761 -15.2156 -0.496374 -28.2926 2.77018 -0.006366 3.40002e-005 -3.04569 -5.21462 -4.58246 
